<mxfile host="app.diagrams.net" modified="2024-02-29T02:35:33.878Z" agent="Mozilla/5.0 (Windows NT 10.0; Win64; x64) AppleWebKit/537.36 (KHTML, like Gecko) Chrome/122.0.0.0 Safari/537.36" version="23.1.8" etag="KY9-yLOAd9ZTdeZFTLxX" type="github">
  <diagram name="第 1 页" id="vCILg_Ki7q9bG5vbGijk">
    <mxGraphModel>
      <root>
        <mxCell id="0" />
        <mxCell id="1" parent="0" />
      </root>
    </mxGraphModel>
  </diagram>
</mxfile>
